<svg width="1em" height="1em" class="size-5 lg:size-7" data-astro-cid-rreterqb="true"
  data-icon="ri:dashboard-line">
  <symbol id="ai:ri:dashboard-line" viewBox="0 0 24 24">
    <path fill="currentColor"
      d="M14 21a1 1 0 0 1-1-1v-8a1 1 0 0 1 1-1h6a1 1 0 0 1 1 1v8a1 1 0 0 1-1 1zM4 13a1 1 0 0 1-1-1V4a1 1 0 0 1 1-1h6a1 1 0 0 1 1 1v8a1 1 0 0 1-1 1zm5-2V5H5v6zM4 21a1 1 0 0 1-1-1v-4a1 1 0 0 1 1-1h6a1 1 0 0 1 1 1v4a1 1 0 0 1-1 1zm1-2h4v-2H5zm10 0h4v-6h-4zM13 4a1 1 0 0 1 1-1h6a1 1 0 0 1 1 1v4a1 1 0 0 1-1 1h-6a1 1 0 0 1-1-1zm2 1v2h4V5z"></path>
  </symbol>
  <use href="#ai:ri:dashboard-line"></use>
</svg>