<svg
  fill="none"
  viewBox="0 0 579 112"
  aria-label="Microsoft"
  class="h-6"
  astro-icon="logos/microsoft"
>
  <path
    fill="#fff"
    d="M579 50.87V36.801h-17.471V14.93l-.588.18-16.411 5.022-.323.098v16.573h-25.901V27.57c0-4.3.961-7.59 2.855-9.783 1.882-2.168 4.573-3.27 8.005-3.27 2.467 0 5.021.581 7.592 1.727l.645.288V1.716l-.303-.112c-2.399-.862-5.661-1.296-9.704-1.296-5.096 0-9.726 1.109-13.764 3.307-4.041 2.2-7.219 5.343-9.446 9.337-2.218 3.99-3.344 8.599-3.344 13.699V36.8h-12.166v14.07h12.166v59.27h17.464v-59.27h25.901v37.665c0 15.513 7.317 23.374 21.748 23.374 2.371 0 4.867-.278 7.415-.822 2.594-.559 4.361-1.117 5.401-1.713l.23-.136v-14.2l-.711.47c-.948.632-2.128 1.148-3.512 1.532-1.389.39-2.55.587-3.45.587-3.38 0-5.881-.911-7.433-2.709-1.569-1.814-2.365-4.986-2.365-9.423V50.87H579ZM449.675 97.63c-6.338 0-11.336-2.102-14.858-6.242-3.544-4.161-5.339-10.094-5.339-17.632 0-7.776 1.795-13.863 5.34-18.098 3.525-4.206 8.474-6.342 14.715-6.342 6.056 0 10.876 2.04 14.329 6.064 3.47 4.046 5.232 10.084 5.232 17.952 0 7.964-1.656 14.081-4.922 18.174-3.244 4.06-8.121 6.124-14.497 6.124Zm.777-62.596c-12.094 0-21.699 3.544-28.548 10.533-6.844 6.99-10.315 16.662-10.315 28.752 0 11.483 3.388 20.72 10.069 27.448 6.682 6.731 15.775 10.141 27.025 10.141 11.723 0 21.137-3.593 27.983-10.679 6.845-7.078 10.313-16.66 10.313-28.466 0-11.663-3.254-20.968-9.675-27.652-6.424-6.687-15.46-10.077-26.852-10.077Zm-67.02 0c-8.227 0-15.032 2.105-20.23 6.253-5.23 4.174-7.882 9.648-7.882 16.271 0 3.443.572 6.502 1.699 9.096 1.134 2.602 2.888 4.894 5.219 6.817 2.313 1.907 5.884 3.906 10.615 5.939 3.978 1.636 6.945 3.02 8.829 4.112 1.842 1.07 3.149 2.144 3.887 3.192.717 1.024 1.081 2.427 1.081 4.157 0 4.927-3.69 7.325-11.282 7.325-2.816 0-6.029-.588-9.548-1.748a35.883 35.883 0 0 1-9.777-4.957l-.725-.52v16.814l.266.124c2.471 1.14 5.587 2.102 9.259 2.859 3.665.758 6.995 1.143 9.888 1.143 8.927 0 16.115-2.114 21.361-6.288 5.278-4.202 7.954-9.805 7.954-16.657 0-4.944-1.441-9.183-4.279-12.602-2.819-3.392-7.713-6.505-14.538-9.257-5.437-2.182-8.92-3.994-10.357-5.385-1.386-1.343-2.089-3.243-2.089-5.649 0-2.133.868-3.841 2.651-5.225 1.796-1.39 4.296-2.098 7.432-2.098 2.91 0 5.887.46 8.848 1.36 2.958.901 5.557 2.108 7.726 3.584l.714.487v-15.95l-.274-.117c-2.001-.859-4.64-1.593-7.846-2.189-3.191-.592-6.085-.89-8.602-.89ZM309.791 97.63c-6.337 0-11.337-2.102-14.858-6.242-3.544-4.161-5.336-10.092-5.336-17.632 0-7.776 1.794-13.863 5.34-18.098 3.521-4.206 8.47-6.342 14.714-6.342 6.053 0 10.874 2.04 14.328 6.064 3.471 4.046 5.231 10.084 5.231 17.952 0 7.964-1.657 14.081-4.922 18.174-3.244 4.06-8.118 6.124-14.497 6.124Zm.779-62.596c-12.097 0-21.703 3.544-28.548 10.533-6.844 6.99-10.317 16.662-10.317 28.752 0 11.488 3.39 20.72 10.072 27.448 6.681 6.731 15.774 10.141 27.024 10.141 11.721 0 21.137-3.593 27.983-10.679 6.844-7.078 10.313-16.66 10.313-28.466 0-11.663-3.255-20.968-9.677-27.652-6.426-6.687-15.46-10.077-26.85-10.077Zm-65.375 14.468v-12.7h-17.251v73.338h17.251V72.624c0-6.379 1.446-11.62 4.3-15.578 2.818-3.911 6.573-5.893 11.158-5.893 1.554 0 3.298.256 5.187.763 1.87.504 3.224 1.05 4.023 1.627l.725.525V36.676l-.28-.12c-1.606-.683-3.879-1.027-6.755-1.027-4.335 0-8.215 1.393-11.538 4.135-2.917 2.411-5.025 5.716-6.637 9.838h-.183Zm-48.146-14.468c-7.914 0-14.974 1.697-20.978 5.043-6.017 3.353-10.67 8.14-13.836 14.228-3.152 6.072-4.753 13.166-4.753 21.077 0 6.929 1.552 13.288 4.619 18.892 3.068 5.614 7.411 10.006 12.909 13.052 5.49 3.042 11.835 4.584 18.86 4.584 8.199 0 15.199-1.639 20.811-4.871l.226-.13V91.104l-.725.53a32.424 32.424 0 0 1-8.44 4.394c-3.049 1.064-5.829 1.602-8.266 1.602-6.769 0-12.204-2.118-16.148-6.294-3.953-4.181-5.958-10.053-5.958-17.441 0-7.435 2.091-13.457 6.21-17.9 4.107-4.431 9.551-6.679 16.181-6.679 5.67 0 11.195 1.92 16.423 5.712l.723.526V38.9l-.233-.132c-1.967-1.101-4.651-2.01-7.981-2.7-3.317-.688-6.561-1.035-9.644-1.035Zm-51.448 1.768h-17.252v73.338h17.252V36.802Zm-8.45-31.243c-2.839 0-5.315.967-7.35 2.882-2.043 1.921-3.079 4.34-3.079 7.194 0 2.809 1.024 5.183 3.047 7.053 2.011 1.864 4.495 2.809 7.383 2.809s5.381-.945 7.416-2.806c2.047-1.873 3.086-4.246 3.086-7.056 0-2.755-1.011-5.148-3.002-7.116-1.99-1.964-4.514-2.96-7.501-2.96ZM94.108 31.391v78.749h17.606V7.804H87.347L56.374 83.816 26.317 7.804H.957V110.14h16.546V31.383h.568l31.74 78.757h12.485L93.54 31.39h.568Z"
  ></path>
</svg>